<?xml version="1.0" encoding="UTF-8" standalone="no"?>
<svg
   xmlns:dc="http://purl.org/dc/elements/1.1/"
   xmlns:cc="http://creativecommons.org/ns#"
   xmlns:rdf="http://www.w3.org/1999/02/22-rdf-syntax-ns#"
   xmlns:svg="http://www.w3.org/2000/svg"
   xmlns="http://www.w3.org/2000/svg"
   xmlns:sodipodi="http://sodipodi.sourceforge.net/DTD/sodipodi-0.dtd"
   xmlns:inkscape="http://www.inkscape.org/namespaces/inkscape"
   width="30.004732mm"
   height="18.285158mm"
   viewBox="0 0 30.004732 18.285158"
   version="1.1"
   id="svg8"
   inkscape:version="1.0.1 (3bc2e813f5, 2020-09-07)"
   sodipodi:docname="Listen.svg">
  <defs
     id="defs2">
    <rect
       x="81.461159"
       y="122.9325"
       width="51.489811"
       height="28.614492"
       id="rect1555" />
    <rect
       x="36.619984"
       y="89.981956"
       width="16.235012"
       height="33.94688"
       id="rect925" />
    <rect
       x="19.052595"
       y="58.452091"
       width="70.489395"
       height="63.494419"
       id="rect919" />
    <rect
       x="19.052595"
       y="58.452091"
       width="70.489395"
       height="63.494419"
       id="rect919-8" />
    <rect
       x="19.052595"
       y="58.452091"
       width="70.489395"
       height="63.494419"
       id="rect953" />
    <rect
       x="19.052595"
       y="58.452091"
       width="70.489395"
       height="63.494419"
       id="rect919-8-4" />
    <rect
       x="19.052595"
       y="58.452091"
       width="70.489395"
       height="63.494419"
       id="rect1098" />
    <rect
       x="19.052595"
       y="58.452091"
       width="70.489395"
       height="63.494419"
       id="rect919-8-4-3" />
    <rect
       x="19.052595"
       y="58.452091"
       width="70.489395"
       height="63.494419"
       id="rect1252" />
    <rect
       x="19.052595"
       y="58.452091"
       width="70.489395"
       height="63.494419"
       id="rect919-8-4-32" />
    <rect
       x="19.052595"
       y="58.452091"
       width="70.489395"
       height="63.494419"
       id="rect1326" />
    <rect
       x="19.052595"
       y="58.452091"
       width="70.489395"
       height="63.494419"
       id="rect919-8-4-32-5" />
    <rect
       x="19.052595"
       y="58.452091"
       width="70.489395"
       height="63.494419"
       id="rect1383" />
    <rect
       x="19.052595"
       y="58.452091"
       width="70.489395"
       height="63.494419"
       id="rect919-8-4-32-5-2" />
    <rect
       x="19.052595"
       y="58.452091"
       width="70.489395"
       height="63.494419"
       id="rect1437" />
    <rect
       x="19.052595"
       y="58.452091"
       width="70.489395"
       height="63.494419"
       id="rect919-8-4-32-5-2-6" />
    <rect
       x="19.052595"
       y="58.452091"
       width="70.489395"
       height="63.494419"
       id="rect1506" />
  </defs>
  <sodipodi:namedview
     id="base"
     pagecolor="#ffffff"
     bordercolor="#666666"
     borderopacity="1.0"
     inkscape:pageopacity="0.0"
     inkscape:pageshadow="2"
     inkscape:zoom="1.3249068"
     inkscape:cx="143.31523"
     inkscape:cy="109.17655"
     inkscape:document-units="mm"
     inkscape:current-layer="layer1"
     inkscape:document-rotation="0"
     showgrid="false"
     inkscape:window-width="2048"
     inkscape:window-height="1083"
     inkscape:window-x="0"
     inkscape:window-y="0"
     inkscape:window-maximized="1" />
  <metadata
     id="metadata5">
    <rdf:RDF>
      <cc:Work
         rdf:about="">
        <dc:format>image/svg+xml</dc:format>
        <dc:type
           rdf:resource="http://purl.org/dc/dcmitype/StillImage" />
        <dc:title></dc:title>
      </cc:Work>
    </rdf:RDF>
  </metadata>
  <g
     inkscape:label="Layer 1"
     inkscape:groupmode="layer"
     id="layer1"
     transform="translate(-73.767853,-55.693817)">
    <rect
       style="fill:#5aa02c;stroke:none;stroke-width:0.955929;stroke-linecap:square;stroke-miterlimit:4;stroke-dasharray:none;paint-order:markers fill stroke"
       id="rect2895-3"
       width="30.004732"
       height="18.285158"
       x="73.767853"
       y="55.693817"
       ry="6.0410495"
       inkscape:export-xdpi="200"
       inkscape:export-ydpi="200" />
    <path
       style="fill:#aade87;fill-opacity:1;stroke-width:0.264583"
       d="m 79.655345,62.80148 c 0.47812,-0.01897 1.27592,1.240771 1.30868,2.066411 0.0328,0.825641 -0.66273,2.144621 -1.14085,2.163591 -0.30468,0.01209 -0.3641,-0.111212 -0.2191,-0.454691 0.25699,-0.608737 0.1733,-2.718228 -0.13112,-3.30469 -0.171757,-0.330911 -0.122297,-0.458532 0.18239,-0.470621 z m 1.45707,-2.073313 c 0.58799,-0.396453 2.13822,2.453035 2.20145,4.046491 0.0657,1.656616 -1.31749,4.680591 -1.90352,4.161417 -0.22441,-0.198809 -0.21093,-0.578593 0.0506,-1.425447 0.4547,-1.472373 0.36157,-3.878333 -0.20527,-5.30223 -0.52859,-1.327894 -0.51883,-1.227022 -0.14327,-1.48023 z m 1.99112,-1.900523 c 0.37686,-0.254101 1.80558,1.207796 2.68469,2.747021 1.49494,2.61751 1.01396,6.01702 -1.19795,8.46699 -1.22395,1.355659 -1.53643,0.716455 -0.67156,-1.373727 0.59895,-1.447534 0.68827,-2.021735 0.61315,-3.941596 -0.0744,-1.900585 -0.20959,-2.482223 -0.87655,-3.770501 -0.87121,-1.682803 -0.92197,-1.878594 -0.55178,-2.128187 z"
       id="path2043"
       inkscape:export-filename="/home/tony/path2073.png"
       inkscape:export-xdpi="200"
       inkscape:export-ydpi="200" />
    <path
       style="fill:#aade87;fill-opacity:1;stroke-width:0.264583"
       d="m 92.942218,71.857756 c -1.63642,-0.810013 -3.35991,-2.651945 -4.25151,-4.543687 -2.38216,-5.05435 -1.50312,-9.602241 1.95624,-10.121004 2.24158,-0.336146 5.14899,1.671622 5.15194,3.557776 9e-4,0.572184 -0.0996,0.518268 -1.05302,-0.564853 -1.83855,-2.0887 -4.36245,-2.589123 -5.53569,-1.097583 -1.61175,2.049005 -0.38224,7.640219 2.254,10.250069 1.14827,1.136773 2.70448,2.024594 3.5488,2.024594 1.30861,0 2.3536,-1.291849 2.39714,-2.963423 l 0.0227,-0.873034 0.23011,0.76929 c 0.32678,1.092477 -0.18242,3.236486 -0.88565,3.729042 -0.80548,0.564183 -2.50744,0.489988 -3.8351,-0.167187 z m 1.27016,-3.636251 c -1.93947,-0.998081 -2.31699,-1.682759 -1.94043,-3.519234 0.36782,-1.793823 0.15131,-2.331791 -1.38059,-3.43043 -0.86408,-0.619689 -1.10797,-0.915256 -0.80515,-0.975722 0.8062,-0.160976 2.70259,0.980604 3.21759,1.936905 0.43244,0.802985 0.4534,1.061665 0.17146,2.115819 -0.17667,0.660543 -0.32122,1.305676 -0.32122,1.433628 0,0.127953 0.68461,0.898666 1.52136,1.712695 0.83674,0.814032 1.40229,1.478966 1.25677,1.477633 -0.14552,-0.0013 -0.91943,-0.339415 -1.71979,-0.751294 z"
       id="path2073"
       inkscape:export-filename="/home/tony/path2073.png"
       inkscape:export-xdpi="200"
       inkscape:export-ydpi="200" />
    <text
       xml:space="preserve"
       id="text923"
       style="font-size:10.5833px;line-height:1.25;font-family:Jo_wrote_a_lovesong;-inkscape-font-specification:Jo_wrote_a_lovesong;white-space:pre;shape-inside:url(#rect925);" />
  </g>
</svg>
