<?xml version="1.0" encoding="UTF-8" standalone="no"?>
<svg
   xmlns:dc="http://purl.org/dc/elements/1.1/"
   xmlns:cc="http://creativecommons.org/ns#"
   xmlns:rdf="http://www.w3.org/1999/02/22-rdf-syntax-ns#"
   xmlns:svg="http://www.w3.org/2000/svg"
   xmlns="http://www.w3.org/2000/svg"
   xmlns:sodipodi="http://sodipodi.sourceforge.net/DTD/sodipodi-0.dtd"
   xmlns:inkscape="http://www.inkscape.org/namespaces/inkscape"
   width="62.08617mm"
   height="37.827553mm"
   viewBox="0 0 62.08617 37.827553"
   version="1.1"
   id="svg8"
   inkscape:version="1.0.1 (3bc2e813f5, 2020-09-07)"
   sodipodi:docname="Logout.svg">
  <defs
     id="defs2">
    <rect
       x="81.461159"
       y="122.9325"
       width="51.489811"
       height="28.614492"
       id="rect1555" />
    <rect
       x="36.619984"
       y="89.981956"
       width="16.235012"
       height="33.94688"
       id="rect925" />
    <rect
       x="19.052595"
       y="58.452091"
       width="70.489395"
       height="63.494419"
       id="rect919" />
    <rect
       x="19.052595"
       y="58.452091"
       width="70.489395"
       height="63.494419"
       id="rect919-8" />
    <rect
       x="19.052595"
       y="58.452091"
       width="70.489395"
       height="63.494419"
       id="rect953" />
    <rect
       x="19.052595"
       y="58.452091"
       width="70.489395"
       height="63.494419"
       id="rect919-8-4" />
    <rect
       x="19.052595"
       y="58.452091"
       width="70.489395"
       height="63.494419"
       id="rect1098" />
    <rect
       x="19.052595"
       y="58.452091"
       width="70.489395"
       height="63.494419"
       id="rect919-8-4-3" />
    <rect
       x="19.052595"
       y="58.452091"
       width="70.489395"
       height="63.494419"
       id="rect1252" />
    <rect
       x="19.052595"
       y="58.452091"
       width="70.489395"
       height="63.494419"
       id="rect919-8-4-32" />
    <rect
       x="19.052595"
       y="58.452091"
       width="70.489395"
       height="63.494419"
       id="rect1326" />
    <rect
       x="19.052595"
       y="58.452091"
       width="70.489395"
       height="63.494419"
       id="rect919-8-4-32-5" />
    <rect
       x="19.052595"
       y="58.452091"
       width="70.489395"
       height="63.494419"
       id="rect1383" />
    <rect
       x="19.052595"
       y="58.452091"
       width="70.489395"
       height="63.494419"
       id="rect919-8-4-32-5-2" />
    <rect
       x="19.052595"
       y="58.452091"
       width="70.489395"
       height="63.494419"
       id="rect1437" />
    <rect
       x="19.052595"
       y="58.452091"
       width="70.489395"
       height="63.494419"
       id="rect919-8-4-32-5-2-6" />
    <rect
       x="19.052595"
       y="58.452091"
       width="70.489395"
       height="63.494419"
       id="rect1506" />
  </defs>
  <sodipodi:namedview
     id="base"
     pagecolor="#ffffff"
     bordercolor="#666666"
     borderopacity="1.0"
     inkscape:pageopacity="0.0"
     inkscape:pageshadow="2"
     inkscape:zoom="3.7474023"
     inkscape:cx="91.943305"
     inkscape:cy="64.111217"
     inkscape:document-units="mm"
     inkscape:current-layer="g1338"
     inkscape:document-rotation="0"
     showgrid="false"
     inkscape:window-width="1920"
     inkscape:window-height="1011"
     inkscape:window-x="0"
     inkscape:window-y="0"
     inkscape:window-maximized="1" />
  <metadata
     id="metadata5">
    <rdf:RDF>
      <cc:Work
         rdf:about="">
        <dc:format>image/svg+xml</dc:format>
        <dc:type
           rdf:resource="http://purl.org/dc/dcmitype/StillImage" />
        <dc:title />
      </cc:Work>
    </rdf:RDF>
  </metadata>
  <g
     inkscape:label="Layer 1"
     inkscape:groupmode="layer"
     id="layer1"
     transform="translate(-52.70139,-84.628096)">
    <text
       xml:space="preserve"
       id="text923"
       style="font-size:10.5833px;line-height:1.25;font-family:Jo_wrote_a_lovesong;-inkscape-font-specification:Jo_wrote_a_lovesong;white-space:pre;shape-inside:url(#rect925);" />
    <g
       id="g1212"
       transform="translate(-2.4819309,26.275306)">
      <g
         id="g1225"
         transform="translate(0.84605912,-0.56584156)">
        <g
           id="g1235"
           transform="translate(-0.9370743,-3.9461318)">
          <g
             id="g1338"
             transform="translate(-0.08142825,0.03070815)">
            <g
               id="g1162"
               transform="matrix(1.0770382,0,0,1.0024446,-8.1631039,1.3557744)"
               style="fill:#f0aa00;fill-opacity:1">
              <rect
                 style="fill:#f0aa00;fill-opacity:1;stroke:none;stroke-width:2.3156;stroke-linecap:square;paint-order:markers fill stroke"
                 id="rect1011"
                 width="57.645283"
                 height="37.735306"
                 x="58.975502"
                 y="61.328358"
                 ry="4.6916323" />
            </g>
            <rect
               style="fill:#ffeeaa;fill-opacity:1;stroke:none;stroke-width:0.818091;stroke-linecap:square;paint-order:markers fill stroke"
               id="rect915-8-8"
               width="24.422426"
               height="32.942635"
               x="89.049583"
               y="65.714478" />
            <path
               style="fill:#f0aa00;fill-opacity:1;stroke-width:0.264583"
               d="m 58.638624,100.2695 c -0.240694,-0.24069 -0.3175,-4.652474 -0.3175,-18.237354 0,-15.937991 0.04598,-17.965831 0.415774,-18.335621 0.372683,-0.37269 3.287591,-0.41578 28.125211,-0.41578 21.199001,0 27.784031,0.0746 28.026931,0.3175 0.45918,0.45918 0.45918,36.212073 0,36.671255 -0.46071,0.46071 -55.789711,0.46071 -56.250416,0 z m 51.212916,-3.849692 c 0.57435,-0.691222 1.18075,-1.516832 1.34755,-1.834692 0.21613,-0.41185 0.30328,-4.34636 0.30328,-13.69219 V 67.778665 h -7.40833 -7.408331 v 4.612371 c 0,4.37545 -0.0271,4.62099 -0.5276,4.77984 -1.17165,0.37186 -1.32448,0.81729 -1.32448,3.86013 v 2.8958 l 0.92604,0.4416 c 0.78327,0.37352 0.92604,0.57681 0.92604,1.31864 v 0.87703 l -2.05052,0.004 c -1.12779,0.002 -2.18626,0.0915 -2.35217,0.19844 -0.44698,0.28804 -2.47648,2.79402 -2.47648,3.0579 0,0.12506 0.74414,0.19645 1.65365,0.15867 0.9095,-0.0378 2.45732,0.0248 3.43958,0.13902 l 1.78594,0.20773 v 1.92979 c 0,1.86026 -0.0396,1.9807 -1.09915,3.34262 -0.60453,0.777052 -1.21442,1.561652 -1.35531,1.743542 -0.20356,0.26282 1.26682,0.33073 7.159931,0.33073 h 7.41608 z m -5.90082,-2.217562 c -0.0984,-0.31015 -0.0959,-1.67232 0.006,-3.02704 l 0.18466,-2.4631 -1.61674,-0.81613 c -1.15342,-0.58225 -1.64408,-0.71943 -1.71211,-0.4787 -0.55779,1.97368 -0.849451,2.66536 -1.176911,2.79101 -0.21271,0.0816 -1.9066,-0.0668 -3.76421,-0.3298 -1.97455,-0.27958 -3.83739,-0.40467 -4.48472,-0.30116 l -1.10725,0.17705 0.81204,-1.02529 c 1.36609,-1.72482 1.3715,-1.7268 4.27849,-1.56662 l 2.63897,0.14542 0.003,-2.15784 c 0.002,-1.18681 0.16262,-2.69362 0.35788,-3.34847 0.7983,-2.67736 0.79925,-2.65374 -0.0944,-2.34221 l -0.79549,0.27731 v 2.35537 c 0,1.46814 -0.10462,2.35537 -0.27773,2.35537 -0.15274,0 -0.63297,-0.18371 -1.06717,-0.40824 l -0.78944,-0.40824 0.075,-2.82603 0.075,-2.82604 2.24896,-0.86733 c 1.86505,-0.71927 2.542531,-0.85414 3.968751,-0.79008 2.46365,0.11067 3.72487,0.99285 4.56284,3.19157 l 0.62012,1.62709 2.0106,0.1323 2.0106,0.13229 -0.39705,0.99219 -0.39705,0.99218 -1.75764,-0.004 c -1.99473,-0.005 -2.03805,-0.0244 -3.0774,-1.40808 l -0.76261,-1.01525 -0.60052,1.14754 c -0.33026,0.63116 -0.60586,1.24715 -0.61244,1.36889 -0.007,0.12174 0.73089,0.99494 1.63882,1.94045 l 1.65077,1.71912 0.13792,3.12804 c 0.10873,2.46633 0.23541,3.23577 0.59876,3.63727 0.64016,0.70737 0.36023,0.86316 -1.55097,0.86316 -1.45953,0 -1.67927,-0.0675 -1.83684,-0.56392 z m -2.55906,-18.89698 c -0.97944,-0.53159 -1.473911,-2.15345 -1.00309,-3.29011 0.46187,-1.11505 1.23017,-1.59066 2.56955,-1.59066 1.54278,0 2.6978,1.02053 2.90517,2.56691 0.13217,0.98558 0.0576,1.20322 -0.65744,1.91823 -0.65596,0.65596 -1.02024,0.80455 -1.95135,0.79593 -0.62966,-0.006 -1.46793,-0.18596 -1.86284,-0.4003 z m -31.12942,16.11455 c 0.23677,-0.26956 0.640055,-0.90683 0.896189,-1.41615 0.256134,-0.50933 0.590258,-1.00627 0.742497,-1.10432 0.186241,-0.11995 0.165074,-0.31289 -0.0647,-0.58975 -0.258199,-0.31111 -0.465604,-0.34506 -0.850293,-0.13918 -0.279837,0.14976 -0.438902,0.38539 -0.353477,0.5236 0.08542,0.13822 -0.08984,0.25131 -0.389465,0.25131 -0.307861,0 -0.544781,-0.17259 -0.544781,-0.39687 0,-0.61777 -0.421884,-0.46891 -0.937261,0.33073 -0.257925,0.40018 -0.628806,0.82281 -0.82418,0.93919 -0.384145,0.2288 -0.491834,0.97904 -0.140533,0.97904 0.118081,0 0.47845,-0.24573 0.800818,-0.54606 0.367681,-0.34255 0.854664,-0.51511 1.306661,-0.46302 l 0.720536,0.083 -0.926041,0.94966 c -0.509323,0.52232 -1.09595,1.0056 -1.303616,1.07395 -0.213293,0.0702 -0.293099,0.26097 -0.183422,0.43843 0.23148,0.37454 1.361883,-0.12897 2.051069,-0.9136 z m -3.474448,-0.95313 v -1.78594 h -1.852085 -1.852083 v 1.78594 1.78593 h 1.852083 1.852085 z m -2.910418,-0.0661 c 0,-0.904 0.0252,-0.92604 1.058333,-0.92604 1.033136,0 1.058335,0.022 1.058335,0.92604 0,0.90398 -0.0252,0.92604 -1.058335,0.92604 -1.033134,0 -1.058333,-0.022 -1.058333,-0.92604 z m 10.235553,1.40908 c 0.336801,-0.3164 0.612365,-0.78892 0.612365,-1.05002 0,-0.29488 0.138295,-0.42169 0.36502,-0.33469 0.395429,0.15176 1.487063,-1.0577 1.487063,-1.64755 0,-0.2731 -0.483999,-0.3612 -1.984375,-0.3612 -1.5875,0 -1.984375,0.0794 -1.984375,0.39688 0,0.25825 0.258681,0.39687 0.740622,0.39687 0.688059,0 0.733086,0.0645 0.634444,0.90947 -0.0584,0.50023 -0.332145,1.11399 -0.608329,1.36394 -0.276185,0.24994 -0.502153,0.55505 -0.502153,0.67802 0,0.40739 0.618445,0.23193 1.239718,-0.35172 z m 0.612365,-2.33512 c 0,-0.14553 0.185621,-0.26459 0.41249,-0.26459 0.226869,0 0.338905,0.11906 0.248968,0.26459 -0.08994,0.14552 -0.275557,0.26458 -0.41249,0.26458 -0.136932,0 -0.248968,-0.11906 -0.248968,-0.26458 z m 5.269486,2.22702 c 0.750988,-0.63192 1.413178,-2.0941 1.158348,-2.55775 -0.05998,-0.10914 -0.393777,-0.19844 -0.74176,-0.19844 -0.347983,0 -0.757675,-0.20836 -0.910427,-0.46302 -0.264505,-0.44097 -0.290955,-0.44097 -0.555461,0 -0.152752,0.25466 -0.56947,0.46302 -0.926041,0.46302 -0.564539,0 -0.648312,0.11966 -0.648312,0.92604 0,0.99577 0.489611,1.26675 0.717088,0.39687 0.108411,-0.41456 0.360896,-0.52916 1.165854,-0.52916 0.565112,0 1.027475,0.0926 1.027475,0.20571 0,0.44864 -0.883085,1.42885 -1.497829,1.66258 -0.357874,0.13606 -0.576957,0.36667 -0.486852,0.51246 0.272896,0.44156 0.842917,0.30111 1.697917,-0.41831 z m 3.768924,-0.36566 c -0.08614,-0.83749 -0.06,-0.86478 0.656527,-0.68494 1.17807,0.29568 1.21305,0.29519 1.32935,-0.0188 0.0606,-0.16368 -0.37814,-0.493 -0.97503,-0.73183 -0.873524,-0.34953 -1.069244,-0.54956 -1.003193,-1.02533 0.05016,-0.36132 -0.05732,-0.59108 -0.276519,-0.59108 -0.270025,0 -0.355141,0.47372 -0.344654,1.91822 0.0077,1.05503 0.02019,1.98768 0.02785,2.07257 0.0077,0.0849 0.162754,0.10464 0.344655,0.0439 0.201727,-0.0674 0.295735,-0.45067 0.241014,-0.98269 z m -13.080701,-5.3504 c 0.346786,0.0249 0.703286,-0.17331 0.869205,-0.48334 0.36076,-0.67408 0.959196,-0.67246 1.321003,0.004 0.25087,0.46876 0.55399,0.52917 2.655142,0.52917 1.404905,0 2.371941,-0.10787 2.371941,-0.26458 0,-0.14552 -0.119062,-0.26459 -0.264583,-0.26459 -0.145521,0 -0.264584,-0.52875 -0.264584,-1.17501 0,-0.64625 0.119063,-1.24859 0.264584,-1.33853 0.509425,-0.31484 0.257947,-0.66146 -0.479904,-0.66146 h -0.744487 l 0.116221,1.60674 0.116221,1.60674 -0.893088,-0.0854 c -0.891598,-0.0852 -0.893222,-0.0879 -0.972959,-1.62421 -0.105803,-2.03844 -0.667351,-1.88149 -0.846171,0.23651 l -0.132292,1.5669 -0.609525,-1.65365 c -0.340537,-0.92387 -0.769014,-1.65364 -0.970924,-1.65364 -0.198769,0 -0.558457,0.59329 -0.799307,1.31842 l -0.43791,1.31842 -0.906263,-0.72311 c -1.078028,-0.86016 -1.134824,-1.11998 -0.244821,-1.11998 0.363802,0 0.661459,-0.1228 0.661459,-0.27289 0,-0.71903 -1.928768,-0.5984 -2.211471,0.13831 -0.23668,0.61678 0.08488,1.17419 0.929267,1.61084 0.893443,0.46202 0.748929,0.97368 -0.241336,0.85447 -0.373587,-0.045 -0.725991,0.0571 -0.783121,0.22674 -0.126088,0.37448 0.654432,0.60384 1.380619,0.40568 0.291042,-0.0794 0.793729,-0.12538 1.117084,-0.10214 z m 8.275624,-0.61205 c 0,-0.3638 0.09995,-0.66146 0.222114,-0.66146 0.122163,0 0.357735,0.29766 0.523495,0.66146 0.165759,0.3638 0.482526,0.66146 0.703927,0.66146 0.482646,0 0.488281,-0.0515 0.09906,-0.90576 -0.23405,-0.51368 -0.22689,-0.75836 0.0313,-1.06946 0.566637,-0.68276 -0.313006,-1.72895 -1.453706,-1.72895 h -0.919943 v 1.85208 c 0,1.46991 0.08189,1.85209 0.396875,1.85209 0.246945,0 0.396875,-0.24989 0.396875,-0.66146 z m 0,-1.85209 c 0,-0.27251 0.173408,-0.40228 0.463021,-0.3465 0.5577,0.1074 0.522535,0.57697 -0.05217,0.69663 -0.239708,0.0499 -0.410851,-0.0959 -0.410851,-0.35013 z m -7.944483,-3.03279 c 0.256786,-0.16239 0.464001,-0.13842 0.60697,0.0702 0.155722,0.22723 0.335082,0.1485 0.634568,-0.27855 0.526461,-0.7507 1.563277,-0.78983 1.752525,-0.0661 0.108095,0.41336 0.360943,0.52919 1.155338,0.52927 l 1.016957,10e-5 -0.02763,-1.91833 c -0.02309,-1.60351 -0.103694,-1.93326 -0.491125,-2.00929 -0.576213,-0.11308 -1.237608,0.49206 -0.738016,0.67525 0.424064,0.15549 0.459224,2.54535 0.03537,2.40406 -0.162448,-0.0541 -0.55327,-0.74005 -0.868493,-1.52422 -0.315223,-0.78417 -0.70347,-1.46921 -0.862771,-1.52231 -0.159301,-0.0531 -0.596115,0.65264 -0.970697,1.56832 -0.404461,0.98871 -0.686295,1.42584 -0.693952,1.07634 -0.0083,-0.37884 -0.295688,-0.73476 -0.806643,-0.99898 -0.983319,-0.50849 -1.032486,-0.99274 -0.08923,-0.87883 0.904922,0.10928 1.130256,-0.50424 0.264962,-0.72141 -0.798663,-0.20045 -1.763231,0.27061 -1.763231,0.86111 0,0.54045 0.756379,1.40059 1.231632,1.40059 0.195727,0 0.355868,0.17859 0.355868,0.39687 0,0.26459 -0.264583,0.39688 -0.79375,0.39688 -0.758599,0 -0.996661,0.23806 -0.617361,0.61736 0.254467,0.25447 1.213696,0.20947 1.668711,-0.0783 z m 1.991358,-1.862 c 0.08994,-0.14552 0.216026,-0.26458 0.280199,-0.26458 0.06417,0 0.116676,0.11906 0.116676,0.26458 0,0.14552 -0.126089,0.26459 -0.280198,0.26459 -0.154109,0 -0.206614,-0.11907 -0.116677,-0.26459 z m 4.365625,1.45521 c 0,-0.84636 0.238198,-0.83553 0.938457,0.0427 0.704774,0.88387 1.373181,0.63314 0.769259,-0.28856 -0.330252,-0.50403 -0.345143,-0.7423 -0.08243,-1.31889 0.413814,-0.90823 -0.118298,-1.50674 -1.39368,-1.56761 l -0.893066,-0.0426 -0.08044,1.55787 c -0.04424,0.85684 -0.01821,1.72004 0.05784,1.91823 0.231092,0.60222 0.684055,0.40284 0.684055,-0.3011 z m 0.08959,-1.86795 c -0.198655,-0.51769 0.04021,-0.75393 0.560458,-0.55429 0.523389,0.20084 0.524086,0.6014 0.0014,0.80197 -0.234304,0.0899 -0.472619,-0.0152 -0.561854,-0.24768 z m -9.482298,-3.15913 c 0,-0.14552 -0.321454,-0.30168 -0.714342,-0.34703 -0.659769,-0.0761 -0.720409,-0.18572 -0.79375,-1.43441 -0.04611,-0.78501 -0.218102,-1.39768 -0.410137,-1.46096 -0.243882,-0.0804 -0.330729,0.38714 -0.330729,1.78035 v 1.88935 l 1.124479,-0.0814 c 0.618463,-0.0447 1.124479,-0.20042 1.124479,-0.34594 z m 3.159997,-0.19117 c 0.561403,-0.80151 0.517015,-1.58819 -0.136492,-2.41898 -0.620651,-0.78903 -1.439203,-0.89042 -2.303175,-0.28527 -0.71478,0.50065 -0.818369,2.23041 -0.172265,2.87652 0.632386,0.63238 2.116911,0.53448 2.611932,-0.17227 z m -2.130891,-0.58334 c -0.294,-0.76615 0.01651,-1.60494 0.626179,-1.69151 0.710651,-0.1009 1.204191,0.86852 0.817683,1.60612 -0.292007,0.55725 -1.241249,0.61339 -1.443862,0.0854 z m 5.717769,0.24534 c 0,-0.64676 -0.119692,-0.92604 -0.396875,-0.92604 -0.218281,0 -0.396875,0.21828 -0.396875,0.48507 0,0.68773 -0.257626,0.86019 -0.828538,0.55464 -0.966301,-0.51714 -0.531792,-2.09804 0.576647,-2.09804 1.009426,0 1.244067,-0.46929 0.347192,-0.69439 -1.189233,-0.29848 -2.064699,0.37551 -2.159446,1.66248 -0.101803,1.38281 0.422027,1.94232 1.818461,1.94232 1.011536,0 1.039434,-0.0249 1.039434,-0.92604 z m 3.292289,0.338 c 1.313626,-1.87546 -0.908879,-4.17662 -2.498539,-2.58696 -0.646996,0.647 -0.693753,2.02543 -0.09128,2.69115 0.629085,0.69513 2.070577,0.63714 2.589823,-0.10419 z m -2.132344,-0.58713 c -0.418988,-1.09186 0.632247,-2.17311 1.382936,-1.42242 0.655997,0.65599 0.292109,1.80384 -0.571851,1.80384 -0.365596,0 -0.730585,-0.17164 -0.811085,-0.38142 z m 5.445329,0.6634 c 0.150641,-0.28148 0.273893,-0.93632 0.273893,-1.45521 0,-0.76705 0.09893,-0.94343 0.529167,-0.94343 0.465025,0 0.529166,0.17638 0.529166,1.4552 0,1.11713 0.0922,1.45521 0.396875,1.45521 0.300834,0 0.396875,-0.32613 0.396875,-1.34768 0,-1.12518 0.08737,-1.37054 0.529167,-1.48607 0.29104,-0.0761 0.52917,-0.30516 0.52917,-0.50899 0,-0.28584 -0.42072,-0.36196 -1.839412,-0.3328 l -1.839408,0.0378 -0.07882,1.35585 c -0.06704,1.15318 -0.157917,1.35584 -0.607987,1.35584 -0.452689,0 -0.540812,-0.20325 -0.609738,-1.4063 -0.05415,-0.94508 -0.184308,-1.37217 -0.396875,-1.30224 -0.417338,0.13731 -0.555962,2.41042 -0.188832,3.09641 0.392131,0.7327 1.989264,0.75044 2.37676,0.0264 z"
               id="path913-9" />
            <rect
               style="fill:#f0aa00;fill-opacity:1;stroke:none;stroke-width:0.823;stroke-linecap:square;paint-order:markers fill stroke"
               id="rect915-0"
               width="27.633493"
               height="29.465096"
               x="59.493534"
               y="68.139236" />
            <text
               xml:space="preserve"
               id="text917-6"
               style="font-size:9.8862px;line-height:1.25;font-family:Jo_wrote_a_lovesong;-inkscape-font-specification:Jo_wrote_a_lovesong;white-space:pre;shape-inside:url(#rect919-8-4);fill:#ffffff;"
               x="25.473963"
               y="0"
               transform="matrix(0.64230978,0,0,0.64230978,54.041041,28.142884)"><tspan
                 x="34.746934"
                 y="67.669976"><tspan
                   style="font-style:normal;font-variant:normal;font-weight:normal;font-stretch:normal;font-size:9.8862px;font-family:Ubuntu;-inkscape-font-specification:Ubuntu;text-align:center;text-anchor:middle;fill:#ffeeaa">LOGOUT
</tspan></tspan><tspan
                 x="43.950984"
                 y="80.341493"><tspan
                   style="font-style:normal;font-variant:normal;font-weight:normal;font-stretch:normal;font-size:9.8862px;font-family:Ubuntu;-inkscape-font-specification:Ubuntu;text-align:center;text-anchor:middle;fill:#ffeeaa">SAIR
</tspan></tspan><tspan
                 x="41.385519"
                 y="93.013009"><tspan
                   style="font-style:normal;font-variant:normal;font-weight:normal;font-stretch:normal;font-size:9.8862px;font-family:Ubuntu;-inkscape-font-specification:Ubuntu;text-align:center;text-anchor:middle;fill:#ffeeaa">SALIR
</tspan></tspan><tspan
                 x="29.581422"
                 y="106.40135"><tspan
                   style="font-style:normal;font-variant:normal;font-weight:normal;font-stretch:normal;font-size:9.8862px;font-family:Ubuntu;-inkscape-font-specification:Ubuntu;text-align:center;text-anchor:middle;fill:#ffeeaa">ログアウト</tspan></tspan></text>
          </g>
        </g>
      </g>
    </g>
  </g>
</svg>
