<?xml version="1.0" encoding="UTF-8" standalone="no"?>
<svg
   xmlns:dc="http://purl.org/dc/elements/1.1/"
   xmlns:cc="http://creativecommons.org/ns#"
   xmlns:rdf="http://www.w3.org/1999/02/22-rdf-syntax-ns#"
   xmlns:svg="http://www.w3.org/2000/svg"
   xmlns="http://www.w3.org/2000/svg"
   xmlns:sodipodi="http://sodipodi.sourceforge.net/DTD/sodipodi-0.dtd"
   xmlns:inkscape="http://www.inkscape.org/namespaces/inkscape"
   width="30.004732mm"
   height="18.285158mm"
   viewBox="0 0 30.004732 18.285158"
   version="1.1"
   id="svg8"
   inkscape:version="1.0.1 (3bc2e813f5, 2020-09-07)"
   sodipodi:docname="SpeakDisabled.svg">
  <defs
     id="defs2">
    <rect
       x="81.461159"
       y="122.9325"
       width="51.489811"
       height="28.614492"
       id="rect1555" />
    <rect
       x="36.619984"
       y="89.981956"
       width="16.235012"
       height="33.94688"
       id="rect925" />
    <rect
       x="19.052595"
       y="58.452091"
       width="70.489395"
       height="63.494419"
       id="rect919" />
    <rect
       x="19.052595"
       y="58.452091"
       width="70.489395"
       height="63.494419"
       id="rect919-8" />
    <rect
       x="19.052595"
       y="58.452091"
       width="70.489395"
       height="63.494419"
       id="rect953" />
    <rect
       x="19.052595"
       y="58.452091"
       width="70.489395"
       height="63.494419"
       id="rect919-8-4" />
    <rect
       x="19.052595"
       y="58.452091"
       width="70.489395"
       height="63.494419"
       id="rect1098" />
    <rect
       x="19.052595"
       y="58.452091"
       width="70.489395"
       height="63.494419"
       id="rect919-8-4-3" />
    <rect
       x="19.052595"
       y="58.452091"
       width="70.489395"
       height="63.494419"
       id="rect1252" />
    <rect
       x="19.052595"
       y="58.452091"
       width="70.489395"
       height="63.494419"
       id="rect919-8-4-32" />
    <rect
       x="19.052595"
       y="58.452091"
       width="70.489395"
       height="63.494419"
       id="rect1326" />
    <rect
       x="19.052595"
       y="58.452091"
       width="70.489395"
       height="63.494419"
       id="rect919-8-4-32-5" />
    <rect
       x="19.052595"
       y="58.452091"
       width="70.489395"
       height="63.494419"
       id="rect1383" />
    <rect
       x="19.052595"
       y="58.452091"
       width="70.489395"
       height="63.494419"
       id="rect919-8-4-32-5-2" />
    <rect
       x="19.052595"
       y="58.452091"
       width="70.489395"
       height="63.494419"
       id="rect1437" />
    <rect
       x="19.052595"
       y="58.452091"
       width="70.489395"
       height="63.494419"
       id="rect919-8-4-32-5-2-6" />
    <rect
       x="19.052595"
       y="58.452091"
       width="70.489395"
       height="63.494419"
       id="rect1506" />
  </defs>
  <sodipodi:namedview
     id="base"
     pagecolor="#ffffff"
     bordercolor="#666666"
     borderopacity="1.0"
     inkscape:pageopacity="0.0"
     inkscape:pageshadow="2"
     inkscape:zoom="1.3249068"
     inkscape:cx="138.33959"
     inkscape:cy="36.619918"
     inkscape:document-units="mm"
     inkscape:current-layer="layer1"
     inkscape:document-rotation="0"
     showgrid="false"
     inkscape:window-width="2048"
     inkscape:window-height="1083"
     inkscape:window-x="0"
     inkscape:window-y="0"
     inkscape:window-maximized="1" />
  <metadata
     id="metadata5">
    <rdf:RDF>
      <cc:Work
         rdf:about="">
        <dc:format>image/svg+xml</dc:format>
        <dc:type
           rdf:resource="http://purl.org/dc/dcmitype/StillImage" />
        <dc:title></dc:title>
      </cc:Work>
    </rdf:RDF>
  </metadata>
  <g
     inkscape:label="Layer 1"
     inkscape:groupmode="layer"
     id="layer1"
     transform="translate(-108.00592,-55.693821)">
    <rect
       style="fill:#999999;stroke:none;stroke-width:0.95593;stroke-linecap:square;stroke-miterlimit:4;stroke-dasharray:none;paint-order:markers fill stroke"
       id="rect2895"
       width="30.004732"
       height="18.285158"
       x="108.00592"
       y="55.693821"
       ry="6.0410495"
       inkscape:export-xdpi="200"
       inkscape:export-ydpi="200" />
    <path
       style="fill:#cccccc;stroke:none;stroke-width:0.264583"
       d="m 129.02646,72.662454 c -0.4842,-0.154948 -1.43723,-0.782375 -2.11782,-1.39428 l -1.23743,-1.112557 -4.09992,-0.126525 c -4.93954,-0.152438 -6.48285,-0.61781 -8.4652,-2.552604 -1.94286,-1.896254 -2.0209,-4.211826 -0.21142,-6.272713 1.81544,-2.06769 4.31764,-2.757659 10.0007,-2.757659 5.68308,0 8.18527,0.689969 10.00072,2.757659 2.34088,2.66611 1.43012,5.845537 -2.21388,7.728566 -1.37697,0.711558 -1.45856,0.807756 -1.31648,1.552317 0.0833,0.436563 0.38797,1.116351 0.67703,1.51064 0.81398,1.110323 0.66802,1.206137 -1.0163,0.667156 z m -0.50145,-2.039176 c -0.33544,-0.853906 -0.68265,-1.062194 -0.41102,-1.389471 0,0 0.85449,-0.300905 1.02249,-0.375648 0.9852,-0.438306 3.38268,-1.827271 3.86982,-2.867898 0.17505,-0.373981 0.29887,-1.230508 0.31129,-1.899178 0.0142,-0.76788 -0.15571,-1.438671 -1.29295,-2.575904 -1.89621,-1.896225 -3.34445,-2.142492 -9.12926,-2.142492 -5.78479,0 -7.36398,0.512252 -9.10169,2.107414 -0.95133,0.873295 -1.27483,1.780238 -1.31064,2.704337 -0.0497,1.282284 0.48078,2.267565 2.08153,3.405665 1.96853,1.39957 3.35587,1.703634 7.78351,1.70592 l 3.8546,0.002 1.16739,1.188635 c 0.64205,0.653749 1.25755,1.188635 1.36777,1.188635 0.11022,0 0.0144,-0.473402 -0.21283,-1.052005 z"
       id="path2190"
       sodipodi:nodetypes="sscsssssssssssssssssssscssss"
       inkscape:export-filename="/home/tony/path2190.png"
       inkscape:export-xdpi="200"
       inkscape:export-ydpi="200" />
    <text
       xml:space="preserve"
       id="text923"
       style="font-size:10.5833px;line-height:1.25;font-family:Jo_wrote_a_lovesong;-inkscape-font-specification:Jo_wrote_a_lovesong;white-space:pre;shape-inside:url(#rect925);" />
  </g>
</svg>
